<?xml version="1.0" standalone="no"?>
<!DOCTYPE svg PUBLIC "-//W3C//DTD SVG 20010904//EN"
 "http://www.w3.org/TR/2001/REC-SVG-20010904/DTD/svg10.dtd">
<svg version="1.0" xmlns="http://www.w3.org/2000/svg"
 width="2464.000000pt" height="2464.000000pt" viewBox="0 0 2464.000000 2464.000000"
 preserveAspectRatio="xMidYMid meet">
<metadata>
Created by potrace 1.11, written by Peter Selinger 2001-2013
</metadata>
<g transform="translate(0.000000,2464.000000) scale(0.100000,-0.100000)"
fill="#000000" stroke="none">
<path d="M5758 16794 c-4 -3 -2 -19 2 -35 5 -16 5 -29 0 -29 -5 0 -5 -13 0
-30 5 -16 6 -30 2 -30 -4 0 -7 -16 -7 -35 0 -19 3 -35 7 -35 4 0 3 -13 -2 -30
-5 -17 -5 -30 0 -30 5 0 5 -13 0 -30 -5 -17 -5 -30 0 -30 5 0 5 -13 0 -30 -5
-17 -5 -30 0 -30 5 0 5 -13 0 -30 -5 -16 -5 -30 0 -30 4 0 4 -16 0 -35 -4 -19
-4 -35 1 -35 4 0 5 -10 0 -22 -4 -13 -5 -35 0 -50 4 -16 4 -28 -1 -28 -5 0 -5
-13 0 -30 5 -17 5 -30 0 -30 -5 0 -5 -13 0 -30 5 -17 5 -30 0 -30 -5 0 -5 -13
0 -30 5 -17 5 -30 0 -30 -5 0 -5 -13 0 -30 5 -17 5 -30 0 -30 -5 0 -5 -13 0
-30 5 -16 5 -30 1 -30 -5 0 -6 -11 -4 -24 4 -19 11 -23 29 -21 14 1 27 -1 30
-6 2 -5 15 -4 28 1 15 5 27 5 34 -2 6 -6 12 -6 16 0 4 7 17 7 36 2 17 -5 30
-5 30 0 0 5 13 5 30 0 17 -5 30 -5 30 -1 0 4 20 5 45 1 25 -4 45 -4 45 -1 0 3
11 6 25 6 14 0 25 -4 25 -8 0 -4 8 -3 18 2 11 6 24 6 32 1 9 -5 17 -5 21 1 4
6 15 6 32 0 16 -6 29 -7 32 -1 3 6 15 6 29 0 13 -5 27 -6 30 -3 9 9 56 10 56
1 0 -4 11 -3 25 2 15 6 26 6 30 0 4 -6 13 -7 23 -1 9 5 26 5 37 1 11 -4 32 -4
48 1 16 4 27 4 27 -2 0 -6 6 -6 18 0 11 6 24 6 35 0 11 -6 17 -6 17 0 0 5 9 7
20 4 12 -3 22 1 26 10 9 25 10 177 1 177 -5 0 -5 4 -2 10 4 7 7 512 3 600 0 8
1 20 2 25 1 6 2 38 1 73 l-1 62 -478 0 c-263 0 -481 -3 -484 -6z"/>
<path d="M21153 16162 c-26 -3 -33 -8 -34 -25 0 -12 -1 -39 -2 -60 -1 -20 1
-37 5 -37 4 0 3 -13 -2 -30 -5 -17 -5 -30 0 -30 5 0 5 -13 0 -30 -5 -17 -5
-30 0 -30 5 0 5 -13 0 -30 -5 -17 -5 -30 0 -30 5 0 5 -13 0 -30 -5 -17 -5 -30
0 -30 5 0 5 -13 0 -30 -5 -16 -5 -30 -1 -30 4 0 5 -22 1 -49 -3 -27 -3 -58 1
-70 5 -11 4 -23 -1 -26 -6 -3 -6 -15 0 -30 5 -14 5 -27 0 -30 -5 -3 -5 -18 0
-35 5 -17 5 -30 0 -30 -5 0 -5 -13 0 -30 5 -17 5 -30 0 -30 -5 0 -5 -13 0 -30
5 -17 5 -30 0 -30 -5 0 -5 -13 0 -30 5 -16 5 -30 2 -30 -9 0 -6 -65 3 -80 4
-7 18 -10 31 -7 14 2 27 1 30 -4 2 -5 15 -5 27 0 12 5 31 5 42 1 11 -4 29 -4
40 0 11 4 29 4 41 0 11 -5 27 -5 34 0 7 4 24 5 39 1 14 -4 40 -4 56 -1 17 4
40 3 52 -1 13 -5 25 -4 28 2 4 5 11 7 16 4 5 -4 30 -6 56 -5 27 0 57 1 68 1
146 -2 187 -1 195 4 6 3 10 2 10 -4 0 -5 11 -6 28 -2 15 4 42 4 60 0 17 -4 32
-4 32 0 0 4 13 6 30 3 24 -3 31 0 39 19 5 13 5 25 0 27 -4 2 -4 14 1 27 6 15
6 27 -1 30 -5 4 -6 11 -3 17 4 6 7 28 7 48 0 20 -3 42 -7 48 -3 6 -2 13 3 17
7 4 7 15 1 30 -6 16 -6 25 0 25 6 0 6 9 0 25 -5 14 -6 25 -2 25 4 0 7 24 7 54
0 30 -3 52 -7 49 -5 -2 -4 6 1 19 5 13 5 33 0 46 -5 13 -5 22 1 22 6 0 6 9 0
25 -5 14 -6 25 -2 25 8 0 8 168 0 176 -3 2 -2 22 2 44 4 22 3 37 -1 34 -5 -3
-5 6 1 20 6 17 6 27 -1 32 -7 4 -7 10 0 18 6 7 6 17 1 26 -5 8 -6 18 -3 23 3
6 -8 8 -26 5 -17 -2 -31 -2 -31 1 0 5 -97 6 -270 1 -36 -1 -69 -1 -75 0 -5 1
-32 1 -60 0 -27 0 -57 -1 -65 -1 -47 1 -173 0 -178 0 -4 -1 -11 0 -17 1 -20 4
-107 2 -112 -3 -2 -3 -17 -2 -31 2 -15 3 -42 5 -59 3z"/>
<path d="M2168 15205 c-2 -2 -73 -7 -158 -10 -202 -8 -256 -13 -375 -32 -22
-3 -50 -6 -62 -6 -13 -1 -23 -3 -23 -6 0 -4 -10 -6 -22 -7 -30 -1 -98 -13
-108 -19 -5 -3 -21 -7 -37 -9 -51 -8 -86 -17 -105 -27 -10 -5 -18 -7 -18 -4 0
3 -16 -1 -35 -9 -20 -9 -39 -15 -43 -16 -6 0 -42 -12 -112 -38 -8 -3 -20 -6
-26 -7 -5 -2 -37 -15 -70 -30 -32 -15 -63 -28 -69 -29 -19 -3 -205 -106 -267
-148 -92 -61 -265 -240 -336 -346 -34 -50 -62 -96 -62 -102 0 -5 -5 -10 -12
-10 -6 0 -8 -3 -5 -7 4 -3 0 -15 -10 -25 -9 -10 -12 -18 -7 -18 5 0 4 -4 -1
-8 -31 -21 -173 -381 -159 -403 3 -5 1 -9 -4 -9 -5 0 -9 -6 -9 -12 0 -24 -13
-103 -20 -128 -4 -14 -9 -1347 -10 -2963 l-3 -2937 481 2 482 3 1 217 c1 126
-3 214 -8 211 -5 -4 -6 0 -1 7 10 16 13 230 3 230 -4 0 -5 7 -1 16 9 25 9 393
-1 387 -5 -4 -6 0 -1 7 10 17 12 230 2 230 -5 0 -5 5 -1 12 9 14 9 452 0 467
-4 6 -4 11 1 11 4 0 7 63 6 139 -1 132 0 139 18 136 10 -2 24 -7 29 -10 5 -3
20 -8 32 -10 30 -6 119 -26 138 -32 8 -2 17 -5 20 -5 3 -1 21 -5 40 -9 19 -5
55 -11 80 -15 25 -3 50 -10 56 -15 6 -5 13 -7 15 -4 4 4 57 -2 169 -20 244
-37 793 -37 976 0 16 3 45 8 64 11 19 2 42 7 50 9 8 2 29 7 45 10 70 12 199
43 232 56 16 6 35 12 43 14 8 2 42 14 75 26 33 13 62 24 65 24 10 3 106 47
143 65 20 11 37 17 37 13 0 -3 8 1 18 9 9 8 35 23 57 33 22 10 42 21 45 24 3
3 21 15 40 25 63 35 234 149 284 190 94 78 229 219 260 275 5 9 15 22 22 28 7
7 22 29 35 50 13 21 25 40 28 43 16 14 131 241 131 258 0 6 3 12 8 12 4 0 12
15 19 33 77 219 112 326 113 343 0 11 3 24 8 28 4 4 7 11 8 14 0 4 3 21 7 37
4 17 9 39 11 50 3 11 12 55 21 98 9 43 17 95 19 116 1 20 5 42 9 47 3 5 8 43
12 84 3 41 8 86 10 100 9 55 28 373 26 430 -1 8 0 40 0 70 1 30 1 60 1 65 0 6
-3 73 -6 150 -4 77 -8 162 -10 189 -8 83 -18 179 -22 216 -3 19 -7 49 -8 65
-2 17 -8 57 -14 90 -6 33 -13 71 -16 85 -2 14 -9 45 -15 70 -5 24 -8 46 -6 49
3 2 0 10 -7 18 -6 7 -8 16 -5 19 3 3 -1 21 -9 40 -8 19 -14 37 -14 41 -1 24
-89 304 -110 348 -5 11 -21 49 -36 85 -40 98 -104 228 -143 290 -20 30 -36 57
-36 60 0 7 -108 149 -140 185 -58 66 -124 132 -169 170 -26 22 -54 46 -61 53
-26 23 -100 78 -160 117 -88 58 -97 64 -125 77 -14 7 -27 15 -30 18 -6 7 -160
83 -215 106 -110 46 -165 66 -233 85 -102 29 -114 31 -142 34 -14 1 -34 5 -46
9 -19 6 -54 11 -144 21 -19 2 -53 6 -75 10 -22 3 -98 8 -170 11 -71 3 -132 7
-136 10 -3 2 -8 2 -11 -1z m2 -964 c0 6 5 7 10 4 6 -3 49 -8 98 -10 132 -5
197 -14 312 -45 108 -29 164 -48 190 -65 8 -5 20 -10 25 -11 14 -2 137 -76
153 -91 7 -7 17 -13 21 -13 4 0 16 -8 27 -17 10 -10 42 -36 69 -58 55 -44 79
-70 142 -154 45 -60 133 -228 133 -254 0 -9 4 -18 9 -21 9 -6 53 -140 54 -163
0 -7 3 -13 7 -13 3 0 6 -8 6 -17 1 -24 11 -71 17 -80 3 -5 8 -24 11 -43 15
-97 18 -114 22 -134 2 -11 6 -41 9 -66 3 -25 8 -58 10 -75 10 -65 18 -207 19
-352 0 -84 5 -153 9 -153 5 0 5 -4 2 -10 -3 -5 -8 -74 -10 -152 -5 -144 -10
-224 -19 -288 -3 -19 -8 -53 -11 -75 -3 -23 -8 -52 -10 -65 -3 -14 -7 -39 -10
-57 -2 -18 -9 -51 -16 -75 -6 -24 -13 -52 -15 -64 -8 -45 -57 -183 -90 -252
-19 -41 -34 -76 -34 -78 0 -2 -21 -36 -46 -75 -52 -82 -156 -190 -229 -240
-27 -19 -52 -37 -55 -40 -26 -31 -294 -149 -373 -165 -10 -2 -26 -5 -35 -8 -9
-3 -39 -8 -67 -12 -27 -3 -59 -8 -70 -10 -40 -8 -251 -26 -285 -24 -14 1 -42
2 -63 3 -20 1 -37 -2 -37 -6 0 -5 -4 -5 -10 -2 -5 3 -60 8 -121 10 -105 4
-153 8 -239 20 -19 3 -53 7 -75 10 -22 2 -51 7 -65 10 -14 3 -41 7 -60 10 -19
3 -98 21 -175 41 -77 19 -147 36 -155 37 -8 1 -17 4 -20 7 -5 6 -135 51 -160
55 -8 2 -16 4 -17 4 -1 1 2 12 7 26 6 15 6 27 0 30 -6 3 -6 15 0 29 5 13 6 26
3 29 -7 7 -7 153 0 164 3 5 2 15 -3 23 -5 8 -5 21 1 31 6 11 5 20 -1 24 -6 3
-6 15 0 30 6 15 6 27 0 30 -6 3 -6 15 0 30 6 15 6 27 0 30 -6 3 -6 15 0 30 6
15 6 27 -1 30 -6 4 -6 13 0 23 6 10 6 23 0 34 -7 12 -6 18 1 18 6 0 8 5 5 11
-9 14 -9 154 0 168 3 6 2 11 -4 11 -6 0 -6 11 -1 30 5 17 5 30 1 30 -4 0 -5
20 -1 44 3 24 3 53 -1 64 -5 12 -4 24 1 27 6 3 6 15 0 30 -6 15 -6 25 0 25 5
0 5 12 0 29 -4 15 -4 34 0 42 5 7 4 21 -1 30 -6 11 -5 20 1 24 6 3 6 15 0 30
-6 15 -6 27 0 30 6 3 6 15 0 30 -6 15 -6 27 0 30 6 3 6 15 0 30 -6 15 -6 27 0
30 5 3 6 15 1 28 -5 12 -5 32 0 44 5 13 4 25 -1 28 -6 3 -6 15 0 30 5 13 5 27
1 30 -5 3 -6 20 -1 38 4 18 3 43 -1 55 -5 12 -4 24 1 27 6 3 6 15 0 30 -6 15
-6 25 0 25 5 0 5 12 0 29 -4 15 -4 34 0 42 5 7 4 21 -1 30 -6 11 -5 20 1 24 6
3 6 15 0 30 -6 15 -6 27 0 30 6 3 6 15 0 30 -6 15 -6 27 0 30 6 3 6 15 0 30
-6 15 -6 27 0 30 5 3 6 15 1 28 -5 12 -5 32 0 44 5 13 4 25 -1 28 -6 3 -6 15
0 30 5 13 5 27 1 29 -5 3 -5 23 -1 44 4 21 3 48 -1 60 -5 12 -4 24 1 27 6 3 6
15 0 30 -5 14 -5 27 0 30 5 3 5 18 0 35 -5 17 -5 30 0 30 5 0 5 13 0 30 -5 17
-5 30 0 30 4 0 5 12 1 28 -4 15 -4 39 0 54 4 16 3 30 -2 34 -5 3 -7 9 -4 14 3
5 8 30 10 56 12 145 88 307 180 386 11 10 27 24 35 31 20 19 118 89 122 87 5
-2 43 13 48 20 5 7 141 57 175 65 11 2 40 9 65 16 139 34 252 49 418 54 51 2
96 5 98 8 3 3 19 1 35 -3 18 -5 29 -5 29 1z"/>
<path d="M9979 15206 c-2 -3 -71 -7 -154 -11 -178 -8 -248 -13 -255 -16 -3 -1
-14 -3 -25 -4 -46 -4 -161 -18 -180 -22 -11 -2 -33 -6 -50 -8 -53 -7 -115 -19
-295 -60 -8 -1 -35 -8 -60 -15 -25 -7 -47 -12 -50 -12 -3 0 -20 -6 -37 -13
-18 -8 -33 -12 -33 -10 0 6 -287 -93 -320 -110 l-25 -13 1 -408 c1 -225 2
-410 3 -412 0 -1 17 4 36 12 20 9 39 16 43 17 18 4 31 8 87 27 98 34 301 88
430 116 158 33 173 36 220 42 41 5 80 11 80 14 0 1 18 3 40 5 22 2 63 7 90 9
138 15 183 18 345 17 96 0 198 -2 225 -6 28 -3 73 -7 100 -10 28 -3 68 -8 90
-11 22 -4 50 -7 63 -8 12 0 22 -5 22 -9 0 -5 6 -7 12 -5 12 4 148 -34 233 -65
107 -39 213 -107 300 -192 57 -56 135 -155 135 -172 0 -5 9 -19 20 -33 11 -14
20 -33 20 -42 0 -10 5 -18 10 -18 6 0 10 -8 10 -18 0 -10 4 -22 9 -27 12 -13
67 -195 80 -265 25 -131 31 -179 36 -265 1 -33 4 -67 6 -75 3 -11 -4 -15 -26
-15 -16 0 -34 1 -39 4 -5 2 -25 5 -45 7 -20 1 -58 5 -86 8 -85 10 -282 25
-405 31 -100 6 -503 6 -575 0 -132 -9 -276 -23 -313 -30 -15 -2 -47 -7 -72 -9
-25 -3 -56 -8 -70 -11 -14 -3 -38 -7 -55 -10 -39 -7 -246 -55 -265 -62 -8 -3
-19 -7 -25 -9 -39 -9 -175 -58 -246 -87 -94 -39 -291 -139 -309 -157 -3 -3
-32 -23 -65 -45 -33 -22 -65 -44 -71 -50 -7 -5 -29 -23 -50 -40 -41 -33 -167
-156 -199 -195 -11 -14 -34 -43 -50 -65 -16 -22 -32 -42 -35 -45 -27 -27 -148
-276 -165 -340 -2 -8 -11 -40 -20 -70 -9 -30 -18 -70 -21 -89 -2 -19 -6 -37
-9 -41 -2 -3 -7 -36 -10 -72 -4 -35 -8 -78 -11 -94 -6 -38 -6 -43 -2 -86 3
-21 1 -38 -4 -38 -4 0 -3 -11 2 -25 6 -15 6 -26 -1 -30 -5 -4 -6 -11 -2 -18 3
-6 8 -38 9 -71 4 -102 21 -223 40 -291 8 -27 15 -52 15 -55 7 -31 44 -139 62
-180 11 -25 20 -47 19 -50 0 -3 4 -11 10 -17 6 -7 7 -13 2 -13 -5 0 -4 -4 1
-8 6 -4 30 -49 55 -99 24 -51 48 -93 52 -93 4 0 8 -5 8 -11 0 -12 69 -114 110
-164 67 -81 204 -207 280 -257 83 -55 280 -158 330 -173 14 -5 45 -17 70 -28
25 -11 50 -21 55 -23 6 -1 46 -14 90 -28 44 -15 89 -29 100 -31 11 -2 20 -4
20 -5 0 -2 22 -7 60 -15 17 -3 37 -8 46 -11 9 -2 32 -7 50 -9 19 -3 45 -7 59
-10 30 -6 149 -23 170 -23 8 -1 31 -3 51 -6 20 -3 82 -8 138 -10 56 -2 105 -7
108 -10 3 -3 13 -1 22 4 10 5 23 5 31 0 8 -5 21 -5 31 1 12 6 20 5 24 -1 4 -6
12 -7 18 -3 17 10 47 11 53 1 3 -4 10 -5 17 -1 6 4 45 8 87 9 41 1 100 5 130
8 30 4 75 8 100 11 43 4 71 9 135 20 17 3 41 7 55 9 14 3 25 5 25 6 0 1 9 3
20 5 60 10 88 16 165 38 47 14 101 31 120 39 19 8 37 14 40 14 3 -1 26 7 50
18 25 10 61 25 80 33 112 47 268 131 298 160 7 7 17 13 21 13 4 0 17 9 29 20
12 12 22 18 22 15 0 -8 169 163 203 205 42 52 130 187 127 196 -1 4 2 10 8 13
7 5 75 136 78 151 1 5 7 20 42 102 11 25 18 49 15 52 -4 3 -1 6 5 6 7 0 11 3
11 8 -1 4 0 10 1 15 1 4 4 12 5 17 1 6 4 12 5 15 1 3 3 8 4 13 2 4 9 27 16 52
7 25 14 47 15 50 9 30 16 62 19 95 3 22 5 40 6 40 3 0 9 60 13 121 3 34 7 67
11 72 3 6 2 13 -4 17 -6 4 -8 11 -4 16 8 14 9 113 0 127 -3 6 -2 13 3 17 7 3
7 15 1 30 -6 15 -6 27 0 30 5 3 6 15 1 28 -5 12 -5 32 0 44 5 13 4 25 -1 28
-6 3 -6 15 0 30 5 13 5 27 1 29 -5 3 -5 23 -1 44 4 21 3 48 -1 60 -5 12 -4 24
1 27 6 3 6 15 0 30 -5 14 -5 27 0 30 5 3 5 18 0 35 -5 17 -5 30 0 30 5 0 5 13
0 30 -5 17 -6 30 -2 30 4 0 7 25 7 55 0 30 -3 55 -7 55 -4 0 -3 14 2 30 5 17
5 30 0 30 -5 0 -5 13 0 30 5 17 5 30 0 30 -5 0 -5 13 0 30 5 17 5 30 0 30 -5
0 -5 13 0 30 5 17 5 30 0 30 -5 0 -5 13 0 30 5 17 5 30 0 30 -5 0 -5 13 0 30
5 17 5 30 0 30 -5 0 -5 13 0 30 5 17 5 30 0 30 -5 0 -5 13 0 30 5 17 5 30 0
30 -5 0 -5 13 0 30 5 17 6 30 2 30 -8 0 -7 74 1 87 3 5 2 15 -3 23 -5 8 -5 21
0 30 5 9 5 22 0 30 -5 8 -5 21 0 30 5 9 5 22 0 30 -5 8 -5 21 0 31 5 9 7 19 3
22 -3 4 -7 53 -9 109 -6 186 -30 388 -62 518 -5 19 -9 38 -10 43 -1 4 -2 8 -3
10 -1 4 -8 31 -12 52 -4 16 -24 89 -32 115 -1 3 -7 18 -13 33 -7 16 -12 32
-12 37 0 8 -51 134 -73 180 -26 55 -120 217 -143 247 -13 17 -24 35 -24 38 0
4 -6 12 -12 19 -7 7 -22 25 -33 41 -21 30 -219 231 -273 278 -18 15 -36 27
-41 27 -5 0 -11 4 -13 8 -10 26 -230 154 -359 209 -102 44 -213 83 -236 83 -7
0 -13 5 -13 11 0 5 -4 8 -9 5 -5 -4 -22 -1 -37 4 -14 6 -43 13 -63 16 -20 3
-43 7 -51 10 -8 3 -26 8 -40 10 -14 2 -45 8 -70 13 -25 5 -52 9 -60 9 -15 0
-89 9 -145 18 -16 3 -94 7 -173 9 -78 2 -146 6 -151 9 -4 3 -10 4 -12 2z m791
-2900 c187 -14 239 -18 265 -23 17 -2 52 -7 80 -10 85 -9 84 -7 84 -143 0 -67
3 -125 6 -130 3 -6 3 -10 -2 -10 -7 0 -8 -102 -3 -425 2 -154 -21 -335 -43
-335 -6 0 -7 -3 -4 -7 4 -3 2 -12 -4 -20 -6 -7 -9 -13 -5 -13 18 0 -69 -140
-121 -195 -61 -66 -222 -168 -283 -180 -11 -2 -25 -7 -30 -10 -18 -11 -143
-45 -190 -51 -25 -3 -48 -8 -51 -10 -12 -7 -167 -18 -271 -18 -60 -1 -108 -5
-108 -9 0 -5 -5 -5 -11 -1 -6 3 -57 8 -113 10 -109 4 -184 10 -231 19 -65 11
-100 18 -110 21 -5 2 -22 5 -36 8 -44 10 -142 43 -194 67 -27 12 -53 23 -57
23 -4 1 -13 7 -19 14 -7 6 -17 12 -22 12 -21 0 -207 163 -207 182 0 4 -13 26
-28 50 -27 40 -60 114 -67 148 -2 8 -8 35 -15 60 -16 58 -21 251 -8 315 13 70
13 68 26 91 6 12 9 24 6 26 -2 3 2 11 11 18 8 7 15 17 15 23 0 31 132 180 217
243 68 51 253 134 335 149 10 2 22 6 27 10 5 3 22 7 38 9 15 3 64 14 107 25
86 23 98 26 196 42 92 15 118 19 179 24 30 3 57 7 59 9 4 5 511 -2 582 -8z"/>
<path d="M15687 15193 c-1 -1 -47 -4 -102 -8 -55 -3 -118 -8 -141 -11 -23 -2
-70 -6 -105 -9 -86 -7 -326 -40 -434 -60 -16 -3 -57 -11 -90 -17 -33 -6 -67
-12 -75 -13 -8 -1 -26 -5 -40 -8 -14 -4 -36 -9 -50 -11 -14 -2 -47 -10 -75
-16 -27 -7 -63 -14 -80 -17 -16 -3 -37 -9 -46 -14 -9 -4 -19 -6 -22 -3 -3 3
-12 2 -19 -2 -7 -5 -17 -9 -23 -9 -5 -1 -28 -6 -50 -13 -22 -6 -51 -13 -65
-16 -14 -2 -26 -5 -27 -7 -3 -2 -7 -3 -48 -13 -16 -4 -75 -21 -130 -38 -55
-17 -104 -31 -110 -33 -5 -1 -17 -5 -25 -8 -8 -3 -64 -21 -125 -40 -60 -20
-123 -41 -140 -48 -16 -6 -38 -14 -48 -16 -10 -1 -31 -10 -47 -18 -17 -9 -31
-15 -32 -14 -2 0 -16 -4 -31 -10 -15 -6 -38 -13 -50 -16 -21 -6 -22 -10 -17
-71 3 -36 4 -67 2 -69 -2 -2 -3 -111 -2 -242 2 -286 2 -238 0 -363 -1 -58 0
-109 1 -115 1 -5 1 -14 0 -19 -1 -5 -1 -55 -1 -112 1 -57 1 -112 1 -121 0 -10
0 -65 0 -123 0 -58 0 -112 0 -120 0 -30 0 -545 0 -555 0 -5 0 -57 -1 -115 -1
-58 0 -109 1 -115 1 -5 1 -14 0 -19 -1 -5 -1 -55 -1 -112 1 -57 1 -112 1 -121
0 -10 0 -65 0 -123 0 -58 0 -123 -1 -145 -4 -144 -4 -445 0 -445 3 0 3 -28 0
-62 -3 -35 -3 -92 0 -126 3 -35 3 -67 0 -72 -3 -4 -3 -53 0 -109 3 -56 3 -101
0 -101 -4 0 -4 -65 1 -165 0 -11 0 -69 -1 -128 0 -59 2 -112 5 -117 4 -6 1
-10 -5 -10 -6 0 -9 -4 -5 -9 3 -5 5 -63 5 -128 0 -65 0 -198 -1 -297 0 -100 4
-183 9 -188 6 -6 92 -9 203 -8 107 1 201 1 209 1 8 0 80 0 160 0 80 0 150 0
155 0 52 -1 194 -2 210 -2 l21 1 -1 2030 0 2030 115 25 c99 23 138 31 160 35
3 1 23 5 45 11 22 5 51 12 65 14 14 2 36 7 50 10 14 3 45 8 69 11 25 3 48 7
51 9 3 2 26 6 51 9 24 3 53 8 64 10 34 6 102 16 235 32 54 7 118 13 200 20 41
3 93 7 115 9 22 2 114 7 205 10 158 7 194 15 171 38 -5 5 -5 22 -1 38 5 17 5
31 -1 35 -7 4 -6 10 0 18 6 7 6 17 1 26 -5 8 -6 18 -3 24 9 14 9 67 0 73 -4 2
-3 13 3 23 7 13 7 21 0 25 -6 4 -7 13 -1 24 6 10 6 23 1 31 -5 8 -6 18 -4 22
8 13 8 103 1 115 -4 7 -3 14 3 18 7 4 7 12 0 26 -6 10 -7 19 -3 19 9 0 8 163
-1 178 -3 6 -2 13 4 17 6 4 7 12 1 24 -6 10 -6 23 -1 31 5 8 5 21 -1 31 -8 16
-25 18 -160 16 -83 -1 -151 -3 -152 -4z"/>
<path d="M5775 14877 c-17 -10 -20 -23 -20 -75 0 -34 3 -62 7 -62 4 0 3 -13
-2 -30 -5 -17 -5 -30 0 -30 5 0 5 -13 0 -29 -4 -15 -4 -34 0 -42 5 -7 5 -20 0
-29 -5 -9 -5 -22 0 -30 5 -8 5 -21 0 -30 -5 -9 -5 -22 0 -30 5 -8 5 -21 0 -30
-5 -9 -5 -22 0 -29 4 -8 4 -27 0 -42 -5 -17 -5 -29 0 -29 6 0 6 -10 0 -25 -6
-15 -6 -27 0 -30 6 -3 6 -15 0 -30 -6 -15 -6 -27 0 -30 6 -3 6 -15 0 -30 -6
-15 -6 -27 0 -30 6 -3 6 -15 0 -30 -6 -15 -6 -27 0 -30 6 -3 6 -15 0 -30 -6
-15 -6 -27 0 -30 6 -3 6 -15 0 -30 -6 -15 -6 -27 0 -30 6 -3 6 -15 0 -30 -6
-15 -6 -27 0 -30 5 -3 7 -11 4 -18 -8 -23 -10 -107 -1 -107 4 0 6 -4 2 -10 -8
-13 -10 -234 -1 -248 3 -6 2 -13 -3 -17 -7 -3 -7 -15 -1 -29 5 -13 6 -27 3
-30 -9 -8 -9 -86 -1 -86 4 0 3 -11 -2 -25 -6 -15 -6 -27 0 -30 5 -3 7 -12 3
-21 -8 -21 -9 -264 -1 -264 4 0 3 -13 -2 -30 -5 -17 -5 -30 0 -30 5 0 5 -13 0
-30 -5 -17 -5 -30 0 -30 5 0 5 -13 0 -30 -5 -17 -5 -30 0 -30 5 0 5 -13 0 -30
-5 -17 -5 -30 0 -30 5 0 5 -13 0 -30 -5 -17 -5 -30 0 -30 5 0 5 -13 0 -30 -5
-17 -5 -30 0 -30 5 0 5 -13 0 -30 -5 -17 -5 -30 0 -30 5 0 5 -13 0 -30 -5 -17
-5 -30 0 -30 5 0 5 -13 0 -30 -5 -16 -6 -30 -2 -30 4 0 7 -18 7 -40 0 -22 -2
-40 -5 -40 -7 0 -4 -69 3 -76 3 -3 2 -17 -3 -30 -6 -14 -6 -26 0 -29 6 -4 7
-13 1 -23 -5 -10 -6 -24 -1 -33 5 -8 5 -21 0 -29 -5 -8 -5 -21 1 -31 6 -11 5
-20 -1 -24 -6 -3 -6 -15 0 -30 6 -15 6 -27 0 -30 -6 -3 -6 -15 0 -30 6 -15 6
-27 0 -30 -5 -3 -6 -15 -1 -28 5 -12 5 -32 0 -44 -5 -13 -4 -25 1 -28 6 -3 6
-15 0 -30 -6 -15 -6 -27 1 -30 5 -4 7 -11 4 -16 -9 -13 -9 -214 -1 -227 3 -6
2 -13 -3 -17 -7 -3 -7 -15 -1 -29 5 -13 6 -27 3 -30 -9 -8 -9 -86 -1 -86 4 0
3 -11 -2 -25 -6 -15 -6 -26 1 -30 5 -4 6 -11 3 -17 -8 -12 -8 -267 -1 -275 3
-3 2 -16 -3 -29 -6 -14 -6 -26 0 -29 5 -3 6 -15 0 -29 -4 -12 -4 -29 0 -36 5
-8 5 -21 0 -30 -5 -9 -5 -22 0 -30 5 -8 5 -21 0 -30 -5 -9 -5 -22 0 -30 5 -8
5 -21 0 -30 -5 -9 -5 -22 0 -30 5 -8 5 -21 0 -30 -5 -9 -5 -22 0 -30 5 -8 5
-21 0 -30 -5 -9 -5 -22 0 -30 5 -8 5 -21 0 -30 -5 -9 -5 -22 0 -30 5 -8 5 -21
0 -30 -5 -9 -5 -22 0 -29 4 -8 4 -27 0 -42 -5 -17 -5 -29 0 -29 6 0 6 -10 0
-25 -6 -15 -6 -27 0 -30 6 -3 6 -15 0 -30 -6 -15 -6 -27 0 -30 6 -3 6 -15 0
-30 -6 -15 -6 -27 0 -30 6 -3 6 -15 0 -30 -6 -15 -6 -27 0 -30 6 -3 6 -15 0
-30 -6 -15 -6 -27 0 -30 6 -3 6 -15 0 -30 -6 -15 -6 -27 0 -30 6 -3 6 -15 0
-30 -6 -15 -6 -27 0 -30 5 -3 7 -11 4 -18 -6 -18 -10 -107 -4 -107 7 0 4 -89
-3 -96 -3 -4 -2 -17 3 -30 5 -13 5 -26 0 -29 -14 -9 5 -60 23 -59 10 1 17 -2
17 -7 0 -5 11 -4 25 1 16 6 25 6 25 -1 0 -6 6 -6 19 0 10 6 21 8 23 5 11 -10
48 -12 53 -3 4 5 14 5 26 -1 12 -7 19 -7 19 -1 0 7 8 7 24 1 13 -5 26 -7 29
-4 9 9 62 11 79 2 10 -5 19 -4 23 2 4 6 15 6 30 0 14 -5 25 -6 25 -2 0 4 11 7
25 7 14 0 25 -3 25 -7 0 -4 11 -3 25 2 16 6 25 6 25 0 0 -6 9 -6 25 0 13 5 27
6 29 1 3 -4 26 -5 51 -1 25 4 45 4 45 1 0 -3 16 -6 35 -6 19 0 35 2 35 5 0 7
66 4 79 -5 6 -3 11 -2 11 4 0 7 8 7 23 2 12 -5 31 -5 42 -1 11 4 26 3 33 -2
14 -12 13 -33 12 262 -1 124 -2 230 -1 235 0 19 0 300 0 315 0 8 0 132 0 275
0 143 0 269 0 280 0 60 0 402 0 415 1 101 2 609 0 616 -1 5 -1 14 0 19 2 13 2
610 0 622 -1 4 -1 13 0 18 1 6 1 129 1 275 -1 146 -1 272 -1 280 0 8 0 61 1
118 0 57 -2 107 -5 112 -4 6 -1 10 5 10 6 0 9 4 5 9 -3 5 -5 63 -5 128 0 65 0
219 0 343 -1 124 -1 232 -1 240 0 8 0 120 1 248 0 129 -2 238 -5 242 -3 5 -1
11 4 14 15 9 1 44 -20 49 -10 3 -19 1 -19 -4 0 -5 -11 -4 -25 1 -17 6 -25 6
-25 -1 0 -6 -5 -7 -11 -3 -16 9 -59 11 -84 3 -11 -3 -29 -3 -40 1 -11 4 -28 3
-37 -2 -10 -5 -18 -5 -18 0 0 8 -69 7 -77 -2 -3 -3 -15 -1 -27 4 -13 4 -29 4
-36 0 -8 -5 -18 -6 -23 -3 -14 9 -96 9 -90 1 2 -5 -7 -4 -21 2 -16 6 -27 6
-31 -1 -4 -5 -11 -6 -17 -3 -15 10 -78 11 -78 2 0 -4 -11 -3 -25 2 -16 6 -25
6 -25 -1 0 -6 -7 -6 -17 -1 -19 8 -81 7 -90 -2 -3 -2 -15 -1 -27 4 -13 4 -29
4 -37 0 -7 -5 -16 -5 -19 0 -3 4 -14 3 -25 -3z"/>
<path d="M21830 14883 c0 -4 -30 -8 -68 -9 -71 -1 -223 -11 -258 -18 -12 -2
-45 -7 -75 -11 -30 -3 -85 -13 -124 -20 -38 -8 -81 -16 -95 -19 -133 -25 -373
-112 -534 -192 -61 -31 -121 -62 -133 -68 -13 -6 -23 -14 -23 -18 0 -5 -5 -8
-10 -8 -9 0 -83 -47 -200 -127 -76 -52 -199 -170 -274 -263 -20 -25 -41 -51
-46 -57 -6 -7 -25 -34 -42 -60 -18 -27 -37 -51 -42 -55 -6 -4 -7 -8 -3 -8 4 0
-5 -20 -22 -43 -16 -24 -33 -56 -37 -70 -3 -15 -10 -27 -14 -27 -4 0 -18 -24
-30 -52 -12 -29 -34 -78 -47 -108 -38 -82 -116 -312 -127 -375 -2 -11 -9 -38
-14 -60 -10 -36 -18 -80 -27 -140 -2 -11 -4 -20 -5 -20 -2 0 -4 -9 -5 -20 -1
-11 -5 -38 -9 -60 -15 -90 -33 -274 -41 -416 -2 -41 -4 -76 -5 -79 -2 -3 -1
-9 0 -15 2 -8 1 -84 -1 -150 -1 -24 12 -353 15 -380 2 -16 7 -59 10 -95 6 -59
11 -95 21 -170 2 -14 4 -25 5 -25 1 0 3 -17 6 -37 13 -110 58 -288 116 -463
31 -93 67 -176 132 -304 27 -53 54 -106 60 -118 6 -13 14 -23 19 -23 4 0 7 -5
7 -10 0 -12 41 -73 53 -78 4 -2 7 -10 7 -17 0 -7 4 -15 8 -17 4 -1 25 -25 46
-53 85 -114 302 -306 389 -346 15 -7 27 -16 27 -21 0 -4 5 -8 11 -8 6 0 30
-13 54 -30 24 -16 46 -30 50 -30 3 0 23 -11 45 -25 22 -14 40 -22 40 -18 0 5
4 3 8 -3 15 -22 221 -109 382 -161 66 -22 85 -32 84 -45 -1 -10 2 -18 7 -18 5
0 6 -7 3 -14 -8 -22 -10 -166 -2 -166 4 0 3 -13 -2 -30 -5 -17 -5 -30 0 -30 5
0 5 -13 0 -30 -5 -17 -5 -30 0 -30 5 0 5 -13 0 -30 -5 -19 -5 -30 1 -30 6 0 8
-4 5 -9 -3 -5 8 -11 25 -13 16 -3 32 -1 34 3 3 4 20 3 39 -1 19 -4 37 -5 40
-3 7 8 106 9 106 2 0 -4 17 -3 38 0 20 4 54 4 75 1 20 -4 37 -4 37 0 0 4 18 4
40 0 22 -4 58 -4 80 0 22 4 40 4 40 0 0 -4 18 -4 41 0 22 4 56 4 75 0 19 -4
36 -4 39 0 3 4 21 4 40 0 20 -4 38 -4 41 1 3 5 9 7 14 4 5 -3 39 -6 76 -7 61
-1 68 1 75 21 6 14 5 20 -1 16 -12 -8 -12 -3 0 29 6 16 6 27 0 31 -7 4 -6 13
0 25 7 13 7 21 0 25 -7 4 -7 13 0 26 7 12 7 19 1 19 -7 0 -7 9 -1 25 6 16 6
25 0 25 -6 0 -6 9 0 24 5 13 6 27 2 31 -4 4 -7 12 -7 18 0 5 -10 11 -22 12
-13 1 -23 -2 -23 -7 0 -5 -5 -6 -12 -2 -13 8 -68 12 -68 4 0 -3 -13 -5 -30 -5
-16 0 -30 2 -30 5 0 8 -44 5 -58 -4 -7 -4 -12 -4 -12 1 0 4 -30 9 -68 9 -75 2
-199 11 -252 19 -19 2 -51 7 -70 10 -65 9 -105 16 -175 31 -38 9 -81 18 -95
20 -26 5 -57 37 -41 42 5 2 6 15 1 32 -4 16 -6 31 -2 34 7 8 7 74 -1 82 -3 3
-2 17 3 30 6 14 6 26 0 29 -6 4 -7 13 -1 24 6 10 6 23 1 31 -5 8 -5 21 0 30 5
9 4 23 -1 32 -6 10 -6 19 0 23 7 3 7 15 1 30 -6 15 -6 27 0 30 6 3 6 15 0 30
-6 15 -6 27 0 30 5 3 6 15 1 28 -5 12 -5 32 0 44 5 13 4 25 -1 28 -6 3 -6 15
0 30 5 13 5 27 1 29 -5 3 -5 23 -1 45 4 22 4 45 -1 52 -4 7 -4 20 1 29 5 9 5
22 0 30 -5 8 -6 19 -2 24 9 15 10 46 1 46 -4 0 -4 14 1 30 5 17 6 30 2 30 -4
0 -6 18 -6 40 2 39 0 42 -55 76 -125 80 -241 182 -279 246 -9 15 -20 28 -24
28 -4 0 -8 5 -8 11 0 6 -11 25 -25 43 -14 18 -22 36 -18 39 3 4 1 7 -5 7 -7 0
-12 4 -12 10 0 5 -13 37 -29 70 -44 90 -130 375 -117 387 3 3 1 13 -4 23 -9
16 -15 50 -24 130 -3 19 -7 55 -10 80 -14 114 -17 164 -20 292 -3 75 -7 142
-11 148 -3 5 -2 10 4 10 7 0 7 8 2 23 -5 13 -5 30 -1 37 5 8 4 22 -1 32 -5 10
-6 18 -2 18 4 0 8 44 9 98 1 108 12 294 19 331 2 14 7 47 10 75 3 28 8 58 10
66 4 15 16 82 19 110 1 9 5 21 10 28 4 6 5 12 3 12 -6 0 32 139 58 215 24 71
96 213 143 282 58 85 157 183 228 225 19 11 34 23 34 27 0 3 21 17 48 31 26
13 63 34 82 46 19 11 38 22 43 22 4 1 24 9 45 18 20 9 42 17 47 18 6 2 19 6
30 10 43 16 50 19 65 21 8 1 52 10 97 18 105 21 195 30 310 31 51 1 89 5 85
10 -3 5 0 6 6 2 18 -11 91 -13 85 -2 -4 5 -1 6 6 2 6 -4 58 -9 114 -11 56 -3
149 -12 207 -20 58 -9 116 -18 128 -20 40 -6 185 -56 237 -82 67 -34 168 -93
180 -107 6 -6 28 -23 50 -37 59 -38 152 -133 192 -195 7 -10 23 -35 35 -54 72
-111 158 -351 188 -522 5 -29 11 -62 14 -74 2 -12 7 -43 10 -70 3 -27 8 -69
11 -94 11 -89 17 -177 19 -275 1 -56 6 -106 10 -113 4 -7 3 -12 -1 -12 -9 0
-9 -20 0 -82 2 -16 1 -28 -2 -28 -3 0 -6 -11 -6 -25 0 -14 4 -25 8 -25 5 0 5
-5 1 -12 -4 -6 -9 -52 -10 -102 -10 -370 -76 -710 -182 -936 -58 -123 -153
-250 -248 -329 -48 -41 -151 -111 -163 -111 -6 0 -11 -4 -11 -8 0 -4 -39 -26
-87 -49 -93 -44 -237 -90 -313 -100 -60 -7 -85 -11 -85 -13 0 -1 -29 -4 -65
-6 -36 -3 -76 -6 -90 -7 -20 -2 -25 3 -25 20 0 12 -4 25 -7 28 -4 4 -3 18 2
31 5 13 6 25 2 28 -9 5 -7 59 2 75 4 5 2 13 -4 16 -7 4 -8 11 -2 18 5 7 6 21
2 32 -4 11 -4 30 1 43 5 14 5 22 -2 22 -6 0 -6 6 0 18 7 13 7 22 0 29 -8 8 -8
13 0 17 7 4 7 15 1 30 -5 13 -6 26 -4 29 9 9 10 71 2 89 -5 9 -4 19 2 23 6 4
6 15 0 30 -6 16 -6 25 0 25 6 0 6 9 0 25 -6 15 -6 27 0 30 6 3 6 15 0 30 -6
16 -6 25 0 25 6 0 6 9 0 25 -5 14 -6 25 -2 25 9 0 8 58 -1 66 -3 4 -2 15 3 25
7 12 7 20 0 24 -6 4 -7 13 -1 23 6 11 6 24 0 35 -7 11 -7 17 0 17 7 0 7 8 1
25 -5 14 -6 25 -2 25 8 0 8 57 0 65 -3 3 -2 23 2 44 4 22 3 46 -2 54 -5 9 -4
18 1 22 7 4 7 15 1 30 -6 16 -6 25 0 25 6 0 6 9 0 25 -6 15 -6 27 0 30 6 3 6
15 0 30 -6 16 -6 25 0 25 6 0 6 9 0 25 -5 14 -6 25 -2 25 9 0 8 58 -1 66 -3 4
-2 15 3 25 7 12 7 20 0 24 -6 4 -7 13 -1 23 6 11 6 24 0 35 -7 11 -7 17 0 17
7 0 7 8 1 25 -5 14 -6 25 -2 25 6 0 7 54 2 70 -6 15 -4 47 2 62 5 9 3 20 -2
23 -7 4 -7 11 -2 18 5 7 6 21 2 32 -4 11 -4 30 1 43 5 14 5 22 -2 22 -6 0 -6
6 0 18 7 13 7 22 0 29 -8 8 -8 13 0 17 7 4 7 15 1 30 -5 13 -6 26 -4 29 9 8 9
81 1 94 -4 6 -3 14 2 18 7 4 7 15 1 30 -6 16 -6 25 0 25 6 0 6 9 0 25 -5 14
-6 25 -2 25 4 0 7 24 7 54 0 30 -3 52 -7 49 -5 -2 -4 6 1 19 5 13 5 33 0 46
-5 13 -5 22 1 22 6 0 6 9 0 25 -5 14 -6 25 -2 25 4 0 6 39 5 87 -1 49 -2 88
-3 88 -6 0 -4 58 2 68 4 6 2 17 -3 23 -7 8 -7 14 0 18 7 5 7 15 1 32 -6 14 -6
23 -1 20 4 -3 6 6 3 19 -2 14 -7 23 -11 21 -4 -3 -13 -1 -21 4 -7 4 -24 4 -37
-1 -13 -5 -22 -6 -20 -1 3 4 -24 7 -59 7 -35 0 -64 -4 -64 -8 0 -4 -8 -4 -17
2 -10 5 -26 5 -41 0 -13 -5 -21 -5 -18 -1 3 5 -15 6 -39 2 -25 -4 -45 -3 -45
1 0 4 -13 4 -30 -1 -16 -5 -30 -6 -30 -2 0 9 -53 8 -68 -2 -6 -3 -13 -2 -17 3
-4 7 -15 7 -30 1 -14 -5 -25 -6 -25 -2 0 8 -85 6 -107 -3 -7 -2 -13 0 -13 5 0
5 -13 5 -30 0 -16 -5 -30 -6 -30 -2 0 4 -13 7 -29 7 -16 0 -27 -3 -24 -7 2 -5
-7 -4 -21 2 -16 6 -27 6 -31 0 -4 -6 -13 -7 -24 -1 -10 6 -23 6 -31 1 -9 -5
-19 -5 -27 2 -13 11 -16 7 -26 -39 -3 -13 -1 -23 3 -23 5 0 5 -13 0 -30 -5
-17 -5 -30 0 -30 5 0 5 -13 0 -30 -5 -17 -5 -30 0 -30 5 0 5 -13 0 -30 -5 -17
-5 -30 0 -30 5 0 5 -13 0 -30 -5 -17 -5 -30 0 -30 5 0 5 -13 0 -30 -5 -17 -5
-30 0 -30 5 0 5 -13 0 -30 -5 -16 -5 -30 0 -30 4 0 4 -15 0 -34 -4 -19 -4 -40
1 -47 4 -7 3 -21 -2 -30 -6 -11 -5 -20 1 -24 6 -3 6 -15 0 -30 -6 -15 -6 -27
0 -30 6 -3 6 -15 0 -30 -6 -15 -6 -27 0 -30 6 -3 6 -15 0 -30 -6 -15 -6 -27 0
-30 6 -4 7 -13 1 -23 -6 -11 -6 -24 0 -35 7 -11 7 -17 0 -17 -6 0 -6 -11 -1
-30 5 -17 5 -30 0 -30 -5 0 -5 -13 0 -30 5 -17 5 -30 0 -30 -5 0 -5 -13 0 -30
5 -17 5 -30 0 -30 -5 0 -5 -13 0 -30 5 -16 6 -30 2 -30 -4 0 -7 -25 -7 -55 0
-30 3 -55 7 -55 4 0 5 -6 2 -14 -8 -21 -10 -166 -2 -166 4 0 3 -13 -2 -30 -5
-17 -5 -30 0 -30 5 0 5 -13 0 -30 -5 -17 -5 -30 0 -30 5 0 5 -13 0 -30 -5 -17
-5 -30 0 -30 5 0 5 -13 0 -30 -5 -17 -5 -30 0 -30 5 0 5 -13 0 -30 -5 -17 -5
-30 0 -30 5 0 5 -13 0 -30 -5 -16 -5 -30 -1 -30 4 0 5 -22 1 -49 -3 -27 -3
-58 1 -70 5 -11 4 -23 -1 -26 -6 -3 -6 -15 0 -30 5 -14 5 -27 0 -30 -5 -3 -5
-18 0 -35 5 -17 5 -30 0 -30 -5 0 -5 -13 0 -30 5 -17 5 -30 0 -30 -5 0 -5 -12
-1 -27 4 -16 4 -40 0 -55 -4 -16 -3 -28 1 -28 5 0 5 -13 0 -30 -5 -17 -5 -30
0 -30 5 0 5 -13 0 -30 -5 -17 -5 -30 0 -30 5 0 5 -13 0 -30 -5 -17 -5 -30 0
-30 5 0 5 -13 0 -30 -5 -17 -5 -30 0 -30 5 0 5 -13 0 -30 -5 -17 -5 -30 0 -30
5 0 5 -13 0 -30 -5 -17 -5 -30 0 -30 5 0 5 -13 0 -30 -5 -17 -5 -30 0 -30 5 0
5 -13 0 -30 -5 -17 -5 -30 0 -30 5 0 5 -13 0 -30 -5 -16 -5 -30 0 -30 4 0 6
-9 3 -19 -4 -16 7 -25 54 -49 56 -28 193 -77 243 -86 14 -3 47 -9 74 -14 27
-6 55 -8 63 -5 7 3 13 1 13 -3 0 -5 15 -9 33 -10 81 -2 209 -12 213 -17 3 -3
18 -2 32 3 15 4 36 4 47 0 11 -4 29 -4 40 0 11 4 30 4 42 -1 13 -5 25 -4 29 2
4 6 11 6 20 -2 10 -8 14 -8 14 0 0 15 22 10 36 -8 7 -9 9 -25 3 -43 -4 -16 -4
-28 1 -28 6 0 6 -10 0 -25 -6 -17 -6 -25 1 -25 6 0 7 -6 0 -17 -5 -10 -5 -26
0 -40 5 -14 5 -23 -1 -23 -6 0 -6 -9 0 -25 5 -14 6 -25 2 -25 -6 0 -7 -163 -2
-180 6 -15 4 -47 -2 -62 -5 -9 -3 -20 2 -23 7 -4 7 -11 2 -18 -5 -7 -6 -21 -2
-32 4 -11 4 -30 -1 -42 -5 -15 -5 -23 2 -23 6 0 6 -6 0 -18 -7 -13 -7 -22 0
-29 8 -8 8 -13 0 -17 -7 -4 -7 -15 -1 -30 5 -13 7 -26 4 -29 -9 -9 -11 -62 -2
-84 4 -14 4 -23 -2 -23 -6 0 -6 -9 0 -25 6 -16 6 -25 -1 -25 -6 0 -6 -6 0 -18
7 -14 20 -18 48 -16 60 3 188 14 214 19 13 2 47 7 74 11 28 4 52 8 55 9 9 2
100 16 105 16 2 0 19 5 37 10 18 5 47 12 63 15 37 6 286 84 300 94 6 4 26 13
45 20 88 33 321 156 328 172 2 4 8 8 13 8 11 0 118 68 143 92 11 10 26 18 33
18 7 0 13 4 13 8 0 5 16 20 35 34 46 32 138 122 195 189 52 61 110 136 110
142 0 2 20 34 44 71 24 37 50 81 57 99 7 18 16 34 20 37 27 20 160 361 194
500 23 94 38 159 41 180 5 32 12 65 14 65 1 0 3 12 5 26 2 15 6 42 9 60 2 19
8 61 11 94 4 33 8 70 10 83 7 40 16 164 19 257 2 50 5 95 6 100 1 6 1 12 0 15
-6 15 -5 60 2 60 4 0 4 10 -1 23 -5 14 -5 30 0 40 7 11 6 17 0 17 -6 0 -6 11
-1 29 4 16 6 32 3 35 -4 3 -7 54 -8 113 -4 156 -29 407 -51 503 -3 14 -8 41
-10 60 -7 56 -9 64 -17 78 -5 6 -6 12 -3 12 2 0 -4 29 -14 65 -10 36 -16 65
-14 65 3 0 0 8 -5 18 -6 11 -12 30 -15 43 -18 98 -182 484 -223 527 -7 7 -13
19 -13 27 0 7 -4 15 -8 17 -4 2 -19 21 -32 43 -26 43 -36 56 -62 86 -10 10
-18 22 -18 27 -1 24 -180 203 -275 274 -44 33 -87 65 -96 71 -25 19 -99 64
-204 124 -37 21 -185 94 -230 113 -11 4 -36 15 -55 23 -30 13 -74 28 -90 32
-3 1 -36 11 -75 23 -56 17 -126 37 -165 47 -3 1 -25 5 -50 9 -25 5 -54 10 -65
13 -11 2 -31 5 -45 8 -14 2 -38 6 -55 9 -27 5 -62 9 -195 22 -25 2 -81 6 -125
7 -45 2 -86 7 -93 11 -7 4 -12 4 -12 -1 0 -4 -11 -8 -25 -8 -14 0 -25 3 -25 7
0 4 -11 3 -25 -2 -16 -6 -25 -6 -25 1 0 6 -6 6 -18 0 -11 -6 -24 -6 -35 0 -9
6 -17 6 -17 2z"/>
<path d="M16984 10720 c-24 -9 -36 -41 -23 -61 4 -7 4 -20 -1 -28 -4 -8 -5
-24 0 -35 4 -12 4 -30 0 -41 -4 -11 -4 -30 1 -42 5 -13 4 -25 -1 -28 -6 -3 -6
-15 0 -30 6 -15 6 -25 0 -25 -5 0 -5 -12 0 -29 4 -15 4 -34 0 -42 -5 -7 -4
-21 1 -30 6 -11 5 -20 -1 -24 -6 -3 -6 -15 0 -30 6 -15 6 -27 0 -30 -6 -3 -6
-15 0 -30 6 -15 6 -27 0 -30 -6 -3 -6 -15 0 -30 6 -15 6 -27 0 -30 -5 -3 -6
-15 -1 -28 5 -12 5 -32 0 -44 -5 -13 -4 -25 1 -28 6 -3 6 -15 0 -30 -5 -13 -6
-26 -1 -29 4 -3 5 -28 1 -56 -4 -27 -3 -50 0 -50 8 0 6 -37 -2 -45 -10 -10 4
-56 16 -52 6 2 21 0 34 -4 12 -5 22 -5 22 1 0 5 12 5 28 1 15 -5 37 -4 50 0
13 5 22 4 22 -1 0 -6 9 -6 25 0 16 6 25 6 25 0 0 -6 9 -6 25 0 13 5 27 6 29 1
3 -4 26 -5 51 -1 25 4 45 3 45 -1 0 -4 14 -4 30 1 18 5 30 5 30 0 0 -6 10 -6
25 0 15 6 26 6 30 0 4 -7 13 -6 25 0 12 6 21 7 25 0 3 -6 15 -6 30 0 13 5 27
6 29 1 3 -4 26 -5 51 -1 25 4 45 4 45 1 0 -3 16 -6 35 -6 19 0 35 2 35 5 0 7
66 4 79 -5 6 -3 11 -2 11 4 0 7 8 7 23 2 12 -5 31 -5 42 -1 11 4 26 3 33 -2
14 -12 14 -7 12 192 -1 69 -2 130 -1 135 0 16 0 218 0 240 0 11 0 67 0 125 0
58 -1 110 -1 115 0 6 1 15 2 20 5 20 0 138 -6 133 -3 -4 -19 -2 -35 2 -18 5
-29 5 -29 -1 0 -6 -5 -7 -11 -4 -10 7 -112 10 -134 5 -5 -1 -13 -1 -17 0 -19
5 -169 3 -174 -3 -3 -3 -12 -3 -20 0 -22 8 -124 9 -124 0 0 -5 -5 -5 -11 -2
-6 4 -32 7 -57 6 -61 -1 -71 -1 -175 0 -49 0 -91 -2 -94 -5 -4 -3 -11 -2 -17
3 -6 5 -21 5 -32 1z"/>
</g>
</svg>
